# xmcd
#
# Track frame offsets: 
#        150
#        21746
#        40307
#        60381
#        75814
#        89263
#        108029
#        125884
#        142940
#        159509
#        176712
#        189580
#        206985
#        225177
#        241828
#
# Disc length: 3409 seconds
#
# Revision: 0
# Processed by: cddbd v1.5.2PL0 Copyright (c) Steve Scherf et al.
# Submitted via: ExactAudioCopy v0.95a5
#
DISCID=be0d4f0f
DTITLE=Various Artist - HOT HITS COUNTRY VOL. 95
DYEAR=1900
DGENRE=Country
TTITLE0=DIXIE CHICKS - COWBOY TAKE ME AWAY
TTITLE1=MARK WILLS - BACK AT ONE
TTITLE2=MARTINA MCBRIDE - LOVE'S THE ONLY HOUSE
TTITLE3=TOBY KEITH - HOW DO YOU LIKE ME NOW
TTITLE4=TRACY LAWRENCE - LESSONS LEARNED
TTITLE5=TRACE ADKINS - DON'T LIE
TTITLE6=CHAD BROCK W HANK WILLIAMS JR. and GEORGE JONES - A COUNTRY BOY 
TTITLE6=CAN SURVIVE (Y2K VERSION)
TTITLE7=SAMMY KERSHAW - ME AND MAXINE
TTITLE8=KEITH URBAN - IT'S A LOVE THING
TTITLE9=LILA MCCANN - I WILL BE
TTITLE10=DOUG STONE - TAKE A LETTER MARIA
TTITLE11=PHIL VASSAR - CARLENE
TTITLE12=JESSICA ANDREWS - UNBREAKABLE HEART
TTITLE13=MONTGOMERY GENTRY - DADDY WON'T SELL THE FARM
TTITLE14=CHARLES ALAN ROWE and DANIELLE PECK - BABY YOU MAKE MY DAY
EXTD=
EXTT0=
EXTT1=
EXTT2=
EXTT3=
EXTT4=
EXTT5=
EXTT6=
EXTT7=
EXTT8=
EXTT9=
EXTT10=
EXTT11=
EXTT12=
EXTT13=
EXTT14=
PLAYORDER=
